# xmcd CD database file
#
# Track frame offsets:
#	150
#	38215
#	76387
#	113182
#	155592
#	171227
#	207140
#	231300
#	257922
#
# Disc length: 3999 seconds
#
# Revision: 1
# Processed by: cddbd v1.4PL0 Copyright (c) Steve Scherf et al.
# Submitted via: CDex 1.50
#
DISCID=760f9d09
DTITLE=Barbara Montgomery - Little Sunflower
DYEAR=2002
DGENRE=Jazz
TTITLE0=An Illusion
TTITLE1=E-Mail Blues
TTITLE2=As The Sun
TTITLE3=Idle Moments
TTITLE4=Armando's Rhumba
TTITLE5=You're Always In My Space
TTITLE6=When We First Met
TTITLE7=Web of Glass
TTITLE8=Vox Barbara
EXTD=YEAR: 2002
EXTT0=
EXTT1=
EXTT2=
EXTT3=
EXTT4=
EXTT5=
EXTT6=
EXTT7=
EXTT8=
PLAYORDER=
